<?xml version="1.0" standalone="no"?>
<!DOCTYPE svg PUBLIC "-//W3C//DTD SVG 20010904//EN"
 "http://www.w3.org/TR/2001/REC-SVG-20010904/DTD/svg10.dtd">
<svg version="1.0" xmlns="http://www.w3.org/2000/svg"
 width="512.000000pt" height="512.000000pt" viewBox="0 0 512.000000 512.000000"
 preserveAspectRatio="xMidYMid meet">

<g transform="translate(0.000000,512.000000) scale(0.100000,-0.100000)"
fill="#000000" stroke="none">
<path d="M3733 4915 c-149 -32 -304 -152 -375 -290 -19 -38 -38 -83 -42 -99
-7 -28 -7 -29 -64 -22 -667 80 -1272 51 -1817 -85 -316 -80 -671 -225 -946
-387 -248 -147 -354 -406 -269 -662 12 -36 67 -155 123 -265 96 -187 105 -201
148 -228 76 -47 106 -42 416 66 150 53 286 105 302 116 16 12 39 42 52 67 21
44 22 53 15 214 l-7 168 85 35 c235 98 580 180 916 218 58 7 188 12 290 12
102 0 232 -5 290 -12 336 -38 681 -120 916 -218 l85 -35 -7 -168 c-7 -161 -6
-169 16 -214 30 -64 65 -84 264 -152 l168 -58 -5 -235 c-6 -253 -14 -314 -67
-473 -16 -48 -47 -121 -68 -163 l-38 -76 -143 300 c-79 165 -153 308 -165 319
-49 46 -78 52 -230 52 l-144 0 -4 101 c-5 147 13 139 -312 139 -210 0 -266 -3
-282 -14 -16 -12 -20 -30 -24 -118 l-5 -103 -245 0 -245 0 -5 103 c-4 88 -8
106 -24 118 -16 11 -72 14 -282 14 -325 0 -307 8 -312 -139 l-4 -101 -144 0
c-154 0 -194 -10 -237 -58 -33 -36 -747 -1549 -757 -1604 -14 -71 -13 -593 1
-643 15 -56 54 -104 103 -126 40 -18 106 -19 1906 -19 1800 0 1866 1 1906 19
49 22 88 70 103 126 14 50 15 572 2 642 -6 28 -90 219 -197 444 l-187 394 23
40 c54 96 111 216 139 298 57 162 72 261 78 498 l6 215 47 -12 c58 -15 106 -6
161 30 34 23 52 53 148 246 126 252 148 324 138 449 -19 235 -138 380 -437
531 l-60 30 0 138 c0 166 -16 247 -67 345 -117 226 -378 347 -630 292z m230
-140 c81 -21 132 -50 194 -107 95 -91 136 -205 131 -365 l-3 -91 -95 40 c-188
78 -477 166 -682 208 -34 7 -58 17 -58 24 0 33 65 138 113 184 112 106 257
144 400 107z m-1103 -375 c465 -29 840 -108 1225 -257 131 -51 418 -194 507
-253 136 -89 193 -195 193 -356 l0 -92 -112 -226 c-107 -215 -114 -226 -141
-226 -27 0 -487 156 -533 180 -21 12 -21 14 -14 200 4 103 4 197 0 210 -19 61
-460 211 -806 274 -488 89 -885 81 -1382 -30 -278 -62 -633 -189 -658 -237 -8
-14 -9 -80 -4 -211 6 -156 4 -194 -6 -202 -24 -18 -512 -184 -542 -184 -26 0
-34 13 -138 223 -104 210 -111 226 -116 298 -11 150 57 288 185 372 168 112
480 255 733 336 473 152 1041 216 1609 181z m-690 -1710 l0 -50 -167 2 -168 3
-3 48 -3 47 170 0 171 0 0 -50z m1118 3 l-3 -48 -167 -3 -168 -2 0 50 0 50
171 0 170 0 -3 -47z m420 -205 c6 -7 171 -350 368 -763 l358 -750 4 -298 c3
-260 1 -302 -13 -323 l-15 -24 -1850 0 -1850 0 -15 24 c-14 21 -16 63 -13 323
l4 298 358 750 c197 413 362 756 368 763 15 18 2281 18 2296 0z"/>
<path d="M2463 2280 c-132 -15 -275 -67 -385 -141 -444 -301 -517 -909 -158
-1312 63 -71 162 -143 265 -192 139 -66 204 -80 380 -80 178 1 234 13 380 85
519 257 646 938 253 1364 -185 202 -464 306 -735 276z m286 -161 c213 -57 403
-224 485 -425 113 -277 50 -584 -163 -794 -89 -87 -173 -140 -286 -177 -72
-25 -94 -27 -225 -27 -131 0 -153 2 -225 27 -113 37 -197 90 -286 177 -298
294 -291 762 17 1049 185 173 438 236 683 170z"/>
<path d="M2475 2040 c-202 -28 -386 -160 -474 -340 -93 -190 -94 -379 -2 -565
49 -99 120 -180 209 -238 130 -85 233 -113 390 -105 120 6 212 37 311 102 171
114 281 317 281 521 0 233 -145 465 -351 563 -126 59 -241 79 -364 62z m237
-160 c119 -37 236 -140 290 -256 151 -324 -84 -694 -442 -694 -128 0 -238 43
-331 128 -199 183 -211 493 -27 688 137 145 319 193 510 134z"/>
<path d="M1218 1830 c-22 -13 -129 -238 -130 -274 -2 -50 55 -81 102 -56 24
13 130 234 130 271 0 53 -56 85 -102 59z"/>
</g>
</svg>
