<?xml version="1.0" standalone="no"?>
<!DOCTYPE svg PUBLIC "-//W3C//DTD SVG 20010904//EN"
 "http://www.w3.org/TR/2001/REC-SVG-20010904/DTD/svg10.dtd">
<svg version="1.0" xmlns="http://www.w3.org/2000/svg"
 width="512.000000pt" height="512.000000pt" viewBox="0 0 512.000000 512.000000"
 preserveAspectRatio="xMidYMid meet">

<g transform="translate(0.000000,512.000000) scale(0.100000,-0.100000)"
fill="#000000" stroke="none">
<path d="M3370 4649 c-237 -27 -483 -151 -657 -330 -91 -94 -138 -161 -199
-284 -76 -155 -105 -272 -111 -458 l-6 -148 -56 6 c-57 7 -269 46 -376 69 -96
21 -144 -8 -147 -89 -2 -60 36 -87 168 -119 157 -37 360 -66 481 -69 104 -2
105 -2 130 27 23 27 25 35 19 90 -15 151 -18 275 -7 346 26 166 111 342 225
467 197 215 497 329 772 294 205 -27 354 -94 509 -231 39 -34 80 -66 92 -72
32 -16 130 4 303 61 77 26 140 44 140 40 0 -16 -124 -139 -180 -179 -104 -75
-119 -89 -126 -124 -7 -38 15 -89 45 -106 30 -16 96 -12 219 13 l112 23 -42
-44 c-24 -24 -87 -80 -140 -123 -54 -44 -102 -88 -108 -99 -5 -10 -10 -74 -10
-142 -2 -1249 -783 -2336 -1927 -2683 -403 -122 -842 -153 -1270 -90 -199 30
-492 113 -647 184 l-61 28 60 7 c333 39 670 161 940 341 157 105 175 123 175
175 0 32 -6 48 -28 70 -24 23 -40 29 -98 34 -174 17 -356 81 -478 169 -79 58
-174 156 -228 237 l-50 75 103 6 c217 13 292 46 292 129 0 60 -27 81 -164 124
-158 50 -258 112 -374 231 -93 95 -152 182 -198 295 -25 60 -60 180 -54 186 1
1 43 -9 92 -22 50 -14 134 -27 187 -31 l97 -6 30 31 c25 24 31 39 31 73 0 45
-2 48 -120 141 -126 100 -245 288 -292 460 -19 70 -23 107 -23 238 0 132 4
167 24 238 l23 83 112 -109 c128 -125 255 -232 376 -317 104 -73 145 -79 191
-27 57 64 36 110 -92 203 -161 115 -323 264 -489 447 -70 77 -77 82 -115 82
-23 0 -49 -8 -62 -18 -24 -19 -86 -139 -115 -222 -77 -220 -77 -511 -2 -722
31 -87 85 -197 126 -255 16 -24 26 -43 23 -43 -3 0 -23 9 -45 20 -58 29 -105
26 -141 -9 -26 -27 -29 -36 -29 -98 0 -154 53 -355 132 -503 59 -111 129 -200
236 -300 86 -81 93 -90 68 -90 -32 0 -72 -37 -82 -75 -13 -52 83 -260 175
-380 132 -172 334 -320 521 -380 30 -10 59 -20 63 -22 28 -16 -281 -152 -451
-199 -203 -55 -307 -68 -574 -68 -233 -1 -238 -1 -260 -24 -27 -26 -32 -98 -9
-126 8 -9 62 -45 120 -80 352 -212 750 -344 1196 -397 131 -16 523 -16 650 0
510 62 914 204 1292 453 801 528 1302 1434 1340 2426 l6 162 34 26 c117 89
288 269 399 419 50 69 59 86 59 123 0 36 -5 48 -28 68 -39 33 -82 31 -189 -12
-49 -20 -91 -34 -93 -32 -2 2 15 30 37 63 61 90 131 242 136 298 4 42 1 52
-24 78 -41 43 -85 40 -187 -15 -124 -67 -229 -111 -365 -152 l-123 -37 -47 40
c-174 146 -385 238 -605 262 -108 12 -149 12 -257 0z"/>
<path d="M1443 3673 c-34 -6 -73 -59 -73 -98 0 -24 9 -42 31 -64 91 -91 229
34 142 128 -29 30 -61 41 -100 34z"/>
<path d="M3649 2211 c-21 -22 -29 -39 -29 -65 0 -85 106 -131 165 -71 58 57
12 165 -70 165 -27 0 -44 -8 -66 -29z"/>
<path d="M3455 1932 c-16 -10 -46 -39 -66 -63 -111 -134 -304 -301 -480 -415
-129 -84 -139 -94 -139 -145 0 -54 42 -99 93 -99 76 0 353 199 553 398 201
200 225 250 154 315 -35 32 -72 35 -115 9z"/>
</g>
</svg>
