<?xml version="1.0" encoding="UTF-8" standalone="no"?>
<svg
   xmlns:dc="http://purl.org/dc/elements/1.1/"
   xmlns:cc="http://creativecommons.org/ns#"
   xmlns:rdf="http://www.w3.org/1999/02/22-rdf-syntax-ns#"
   xmlns:svg="http://www.w3.org/2000/svg"
   xmlns="http://www.w3.org/2000/svg"
   version="1.1"
   width="600"
   height="600"
   id="svg2988">
  <defs
     id="defs14" />
  <metadata
     id="metadata2993">
    <rdf:RDF>
      <cc:Work
         rdf:about="">
        <dc:format>image/svg+xml</dc:format>
        <dc:type
           rdf:resource="http://purl.org/dc/dcmitype/StillImage" />
        <dc:title />
      </cc:Work>
    </rdf:RDF>
  </metadata>
  <g
     transform="translate(-79.257 -246.21)"
     id="layer1">
    <rect
       x="79.257"
       y="246.21"
       width="600"
       height="600"
       ry="37.5"
       rx="37.5"
       id="rect2996" />
    <rect
       fill="#fff"
       x="-318.03"
       y="454.42"
       width="399.96"
       height="399.96"
       transform="rotate(-45)"
       id="rect3766" />
    <g
       aria-label="117"
       id="routenum">
      <path
         d="m267.46 680.58v-164.18h-12.537v-21.791q8.6567-0.59702 13.731-4.1791 5.3731-3.5821 8.6567-9.8507h19.104v200z"
         id="path12" />
      <path
         d="m349.67 680.58v-164.18h-12.537v-21.791q8.6567-0.59702 13.731-4.1791 5.3731-3.5821 8.6567-9.8507h19.104v200z"
         id="path14" />
      <path
         d="m519.04 508.64q-13.433 15.224-23.881 34.627-10.448 19.104-18.806 43.284-8.0597 22.985-11.642 45.075-3.5821 21.791-4.7761 48.955h-28.06v-4.1791q0-7.4627 0.89552-17.313 0.89553-9.8508 2.3881-20.299 1.791-10.746 3.8806-21.493 2.0896-11.045 4.7761-20.896 3.2836-11.94 6.8657-22.687 3.8806-11.045 8.3582-21.493 4.7761-10.448 10.448-20.896 5.6716-10.746 13.134-22.687h-75.224v-28.06h111.64v28.06z"
         id="path16" />
    </g>
    <path
       d="m319.88 361.83v21.875h7.8212v43.75h-7.8212v21.875h37.5v-21.875h-7.8038c-0.002-11.611-0.001-23.218 0-34.826l29.679 31.25 29.679-31.25c0.00083 11.608 0 23.215 0 34.826h-7.8038v21.875h37.5v-21.875h-7.8212v-43.75h7.8212v-21.875h-29.696l-29.679 31.25-29.679-31.25h-29.696z"
       id="rect3820" />
  </g>
</svg>
